<?xml version="1.0" encoding="utf-8"?>
<!-- Generator: Adobe Illustrator 24.1.3, SVG Export Plug-In . SVG Version: 6.00 Build 0)  -->
<svg version="1.1" id="Layer_1" xmlns="http://www.w3.org/2000/svg" xmlns:xlink="http://www.w3.org/1999/xlink" x="0px" y="0px"
	 viewBox="0 0 225 45" style="enable-background:new 0 0 225 45;" xml:space="preserve">
<style type="text/css">
	.st0{fill:#DB4540;}
	.st1{fill-rule:evenodd;clip-rule:evenodd;fill:#4865B2;}
	.st2{fill-rule:evenodd;clip-rule:evenodd;fill:#DB4540;}
</style>
<path class="st0" d="M8.9,44H0L6.2,1h11.1l9.1,28.8h0.1L35.4,1h10.8l6.2,43h-9l-3.6-30.1h-0.2L30.2,44h-8l-9.3-30h-0.2L8.9,44z"/>
<path class="st0" d="M98.5,3v8.7c-2.8-2-7.1-3.3-10.7-3.3c-3.8,0-6.5,1.5-6.5,4.2c0,2.5,2.4,3.7,6.9,5.5c6.1,2.4,12.8,5.1,12.8,13.3
	c0,8.1-6.3,13.5-15.8,13.5c-5.4,0-10.2-1.7-13-3.9V32c3,2.7,7.7,4.7,12.1,4.7c4.3,0,7.1-2,7.1-4.9c0-2.9-3-4.3-7.7-6.2
	c-5.3-2.2-11.7-5-11.7-12.7c0-7.5,5.9-12.9,15.2-12.9C91.7,0.1,95.6,1.3,98.5,3z"/>
<path class="st0" d="M143,36.4c2.5,0,4.4-0.5,6.2-1.3V20.8h8.6v19.8c-4.2,2.7-8.9,4.4-14.9,4.4c-11.9,0-22.3-8.7-22.3-22.4
	C120.6,8.8,130.9,0,142.9,0c5.2,0,9.7,1.3,13.2,3.3v9.3c-3.8-2.7-8.1-3.8-12.1-3.8c-8.3,0-13.9,5.9-13.9,13.9
	C130.1,30.7,135.6,36.4,143,36.4z"/>
<path class="st1" d="M207.7,30.4c-0.2-0.3,0.5,0.1,0.5-0.2c0-0.7-0.1-1.4-0.1-2.2c0,0,0-0.1,0-0.1c-0.2-0.5-0.2-1.1-0.3-1.6
	c0-0.9,0-1.7,0-2.6c0-0.8,0-1.7,0.1-2.5c0.1-1-0.6-1.8-0.6-2.7c0-0.9,0.6-2.5,0.7-3.5c0.1-1,0-2.1,0-3.2c0,0,0-0.1,0-0.1
	c0,0,0,0,0-0.1c-0.1-0.5-0.4-0.7-0.9-0.6c-0.1,0-0.1,0.1-0.2,0.1c-0.3,0-0.7,0-1,0c-0.4-0.1-0.7,0.2-1,0.2c-0.6,0-1.1-0.1-1.7,0.1
	c-1.3-0.1-2.5,0.2-3.8,0.1c-0.2,0,0,1-0.2,1c0,0.3,0,0.5,0,0.8c-0.2,0-0.3,0-0.5,0c-0.2,0.4-0.3,0.7-0.5,1c-0.1,0.2-0.1,0.3,0,0.5
	c0.1,0.2,0.1,0.4,0,0.6c-0.1,0.2-0.3,0.1-0.5,0.2c-0.2,0-0.8,0.9-0.8,1.2c0,0.2,0.1,0.4,0.1,0.6c-0.3,0.1-0.6,0.3-0.8,0.4
	c-0.1,0.2,0.1,0.5-0.1,0.7c-0.1,0.1-0.1,0.4,0,0.5c0.1,0.2,0.1,0.3,0,0.5c-0.1,0.2,0.1,0.4,0.1,0.6c-0.1,0.2-0.8,0.1-0.7,0.3
	c0.1,0.2,0.3,0.5,0.2,0.8c0,0.3,0,0.6,0,0.9c-0.5,0.2-0.5,0.3-0.5,0.7c0,0.3,0.1,0.5,0.2,0.8c0,0.1,0.1,0.3,0.2,0.4
	c0.2,0.2,0.2,0.3,0.2,0.5c-0.1,0.4,0.2,0.5,0.4,0.6c0,0.4,0,0.7,0,1.1c-0.1,0-0.1,0-0.2,0c0.3,0.4,0,0.7-0.2,0.9
	c-0.4,0.6-0.9,1.1-1.2,1.8c-0.3,0.5-0.6,1-0.5,1.5c-0.3,0.2,0.9-0.1,0.8,0.2c-0.1,0.2-0.1,0.5-0.1,0.9c0.7,0,1.3,0.1,2-0.1
	c1.6,0.1,3.2-0.2,4.8-0.1c0.2,0,0.3,0,0.5-0.1c0.2-0.1,0.4,0.1,0.4,0.3c0,0.1,0,0.2,0,0.3c-0.1,0.4-0.3,0.8-0.2,1.3
	c0.3,0.2,0.4,0.5,0.7,0.7c0.1,0.1,0.2,0.3,0.2,0.5c0,0.3,0.1,0.5,0.4,0.7c0.2-0.3,0.4-0.7,0.7-0.9c0.3,0.2,0.3,0.1,0.6,0.1
	c0.4-0.1,0.7-0.1,1.1-0.3c0.1-0.1,0.4-0.1,0.6,0.1c0.2,0.1,0.4,0.2,0.7,0.2c0.2,0,0.5,0,0.7,0c0-0.2,0-0.3,0-0.4
	c0.1-0.7-0.1-1.4-0.1-2.1C207.8,31,207.8,30.7,207.7,30.4z"/>
<path class="st0" d="M180.6,22.5c0-13,9.7-22.5,22.3-22.5S225,9.5,225,22.5S215.4,45,202.8,45C190.2,45,180.6,35.6,180.6,22.5z
	 M221.5,22.5c0-12.4-9.1-19.4-18.7-19.4c-9.7,0-18.8,7-18.8,19.4C184,35,193.1,42,202.9,42C212.4,42,221.5,34.9,221.5,22.5z"/>
<rect x="201.1" y="2" class="st2" width="3.4" height="6.4"/>
<rect x="201.1" y="37.1" class="st2" width="3.4" height="6.4"/>
<rect x="218.1" y="19.9" transform="matrix(-1.836970e-16 1 -1 -1.836970e-16 242.2833 -197.2605)" class="st2" width="3.4" height="5.3"/>
<rect x="184.1" y="19.9" transform="matrix(-1.836970e-16 1 -1 -1.836970e-16 208.2912 -163.2685)" class="st2" width="3.4" height="5.3"/>
</svg>
