<svg xmlns="http://www.w3.org/2000/svg" viewBox="0 0 500 225"><path d="M238.9 144.3h214.4v66.6H238.9v-66.6zM20.8 19.6h177.7v162.5H20.8V19.6z" fill="#fff"/><path d="M423 158.1l10.2 22.8h-20.5l10.3-22.8zm-47.2 16.7v.1c0 9.9-7.3 17.5-18.6 17.5h-10.5v-35.3h10.5c11.4.1 18.6 7.8 18.6 17.7z" fill="#3a3a39"/><path d="M214.7 195.4V125h235.4l49.9 99.9H129.5v-.4l84.7-29.2h.5v.1zm231.3 1.7l-20.5-45h-4.7l-20.5 45h5.2l5.4-11.8h24.5l5.2 11.8h5.4zm-51.9 0v-44.6H389v44.6h5.1zm-13-22.3v-.1c0-12.6-9.8-22.2-23.9-22.2h-15.6v44.6h15.6c14.1 0 23.9-9.7 23.9-22.3zm-46.5 22.3v-4.6h-27.8v-15.6h24.5v-4.6h-24.5v-15.2h27.4v-4.6h-32.5v44.6h32.9zm-42.4 0v-44.6h-5.1l-16.4 24.4-16.4-24.4h-5.1v44.6h4.9V161l16.4 23.9h.3l16.4-23.9v36.2h5v-.1z" fill="#3a3a39"/><path d="M214.2 195.4l-84.7 29.2v-29.2h84.7z" fill="#23716c"/><path d="M0 .1v195.4h214.7V.1H0zm63.2 121.1v36H36.9V37.3h48.9c28.5 0 45.8 16.9 45.8 41.5v.4c0 27.8-21.5 42.1-48.3 42.1l-20.1-.1zm102.3 26.6c-7.3 7.4-18.1 11.1-31.1 11.1-1.7 0-3.3-.1-4.9-.2-8.9-.7-16.3-3.5-22.4-7.3-4.7-3-8.6-6.6-11.8-10.5l-6.4-12.6 25.2-6.9c3.8 6.4 9 11.1 15.4 12.6 1.4.3 2.8.5 4.2.5 6.9 0 12-2.9 14.4-9.4 1.1-2.8 1.6-6.3 1.6-10.5V37.3h27v78.4c0 3.3-.2 6.4-.6 9.3-1.4 9.7-5.1 17.2-10.6 22.8z" fill="#00a89c"/><path d="M104.8 79.2v.4c0 10.3-7.7 18.1-20.8 18.1H63.1V61.1h20.3c13.3 0 21.4 6.3 21.4 18.1z" fill="#00a89c"/></svg>