<svg width="180" height="40" xmlns="http://www.w3.org/2000/svg" xmlns:xlink="http://www.w3.org/1999/xlink">
 <!-- Generator: Sketch 41 (35326) - http://www.bohemiancoding.com/sketch -->
 <title>Logo Outlined</title>
 <desc>Created with Sketch.</desc>
 <defs>
  <polygon points="30.3068515 0.0337739872 0.000121505013 0.0337739872 0.000121505013 38.4322527 30.3068515 38.4322527 30.3068515 0.0337739872" id="path-1"/>
 </defs>
 <g>
  <title>Layer 1</title>
  <g fill-rule="evenodd" fill="none" id="Symbols">
   <g id="Logo-Outlined">
    <path fill="#000000" id="On-a-long-enough-tim" d="m213.84277,18.18066c-1.00261,0 -1.80908,-0.34749 -2.41943,-1.04248c-0.61036,-0.69499 -0.91553,-1.61376 -0.91553,-2.75634c0,-1.1491 0.3068,-2.06787 0.92041,-2.75635c0.61361,-0.68848 1.4331,-1.03272 2.4585,-1.03272c1.02214,0 1.84082,0.34342 2.45605,1.03028c0.61524,0.68685 0.92286,1.60318 0.92286,2.74902c0,1.16863 -0.30762,2.09554 -0.92286,2.78076c-0.61523,0.68523 -1.44856,1.02783 -2.5,1.02783zm0.01465,-0.7666c0.73894,0 1.31022,-0.26611 1.71387,-0.79834c0.40365,-0.53223 0.60547,-1.28336 0.60547,-2.25342c0,-0.94076 -0.20264,-1.67643 -0.60791,-2.20703c-0.40528,-0.5306 -0.96598,-0.79589 -1.68213,-0.79589c-0.71941,0 -1.28092,0.26611 -1.68457,0.79833c-0.40365,0.53223 -0.60547,1.27197 -0.60547,2.21924c0,0.94402 0.20019,1.6862 0.60059,2.22657c0.40039,0.54036 0.95377,0.81054 1.66015,0.81054zm4.87305,0.58594l0,-5.30273l0.96191,0l0,0.99609c0.50782,-0.74219 1.12956,-1.11328 1.86524,-1.11328c0.45898,0 0.82519,0.14567 1.09863,0.43701c0.27344,0.29134 0.41016,0.68278 0.41016,1.17432l0,3.80859l-0.96192,0l0,-3.49609c0,-0.39389 -0.05778,-0.67464 -0.17334,-0.84229c-0.11556,-0.16764 -0.3068,-0.25146 -0.57373,-0.25146c-0.58919,0 -1.1442,0.38573 -1.66504,1.15722l0,3.43262l-0.96191,0zm12.10449,-0.67383c-0.57617,0.5306 -1.13118,0.7959 -1.66504,0.7959c-0.43945,0 -0.80403,-0.13753 -1.09375,-0.4126c-0.28971,-0.27506 -0.43457,-0.62255 -0.43457,-1.04248c0,-0.57943 0.24333,-1.02457 0.72998,-1.33545c0.48666,-0.31087 1.18408,-0.46631 2.09229,-0.46631l0.22949,0l0,-0.63964c0,-0.61524 -0.31575,-0.92286 -0.94727,-0.92286c-0.50781,0 -1.05631,0.15625 -1.6455,0.46875l0,-0.79589c0.64779,-0.26368 1.25488,-0.39551 1.82129,-0.39551c0.59245,0 1.02945,0.13346 1.31103,0.40039c0.28158,0.26693 0.42236,0.68196 0.42236,1.24512l0,2.40234c0,0.55013 0.16927,0.8252 0.50782,0.8252c0.04231,0 0.10416,-0.00652 0.18554,-0.01954l0.06836,0.53223c-0.2181,0.10417 -0.45898,0.15625 -0.72265,0.15625c-0.44923,0 -0.73568,-0.2653 -0.85938,-0.7959zm-0.1416,-0.52246l0,-1.37207l-0.32227,-0.00976c-0.52734,0 -0.95377,0.10009 -1.27929,0.30029c-0.32553,0.20019 -0.48828,0.46305 -0.48828,0.78857c0,0.23112 0.08138,0.42643 0.24414,0.58594c0.16276,0.15951 0.36132,0.23926 0.5957,0.23926c0.40039,0 0.81705,-0.17741 1.25,-0.53223zm6.09375,1.19629l0,-7.70996l0.96191,0l0,7.70996l-0.96191,0zm4.96582,0.12207c-0.75847,0 -1.36393,-0.25146 -1.81641,-0.75439c-0.45247,-0.50294 -0.67871,-1.17594 -0.67871,-2.01905c0,-0.85287 0.22705,-1.5275 0.68115,-2.02392c0.45411,-0.49642 1.07015,-0.74463 1.84815,-0.74463c0.778,0 1.39404,0.24821 1.84814,0.74463c0.45411,0.49642 0.68116,1.1678 0.68116,2.01416c0,0.86589 -0.22787,1.54622 -0.6836,2.04101c-0.45573,0.4948 -1.08235,0.74219 -1.87988,0.74219zm0.01465,-0.72266c1.01888,0 1.52832,-0.68684 1.52832,-2.06054c0,-1.35743 -0.50293,-2.03614 -1.50879,-2.03614c-1.00261,0 -1.50391,0.68196 -1.50391,2.0459c0,1.3672 0.49479,2.05078 1.48438,2.05078zm4.05273,0.60059l0,-5.30273l0.96192,0l0,0.99609c0.50781,-0.74219 1.12955,-1.11328 1.86523,-1.11328c0.45899,0 0.8252,0.14567 1.09863,0.43701c0.27344,0.29134 0.41016,0.68278 0.41016,1.17432l0,3.80859l-0.96191,0l0,-3.49609c0,-0.39389 -0.05778,-0.67464 -0.17334,-0.84229c-0.11556,-0.16764 -0.30681,-0.25146 -0.57373,-0.25146c-0.5892,0 -1.14421,0.38573 -1.66504,1.15722l0,3.43262l-0.96192,0zm6.22559,1.7627l0.1123,-0.83497c0.55665,0.26368 1.10514,0.39551 1.64551,0.39551c1.08399,0 1.62598,-0.57454 1.62598,-1.72363l0,-0.83496c-0.35482,0.74219 -0.9375,1.11328 -1.74805,1.11328c-0.63477,0 -1.13932,-0.23112 -1.51367,-0.69336c-0.37435,-0.46224 -0.56152,-1.08561 -0.56152,-1.87012c0,-0.80729 0.21321,-1.46484 0.63964,-1.97265c0.42644,-0.50782 0.97819,-0.76172 1.65528,-0.76172c0.59245,0 1.10188,0.24088 1.52832,0.72265l0,-0.60546l0.96679,0l0,3.85742c0,0.83008 -0.04313,1.44449 -0.12939,1.84326c-0.08626,0.39876 -0.24821,0.7251 -0.48584,0.979c-0.41992,0.44597 -1.07259,0.66895 -1.95801,0.66895c-0.61849,0 -1.21093,-0.0944 -1.77734,-0.2832zm3.38379,-3.59864l0,-2.20215c-0.42318,-0.43945 -0.88379,-0.65918 -1.38184,-0.65918c-0.44271,0 -0.78938,0.17741 -1.04004,0.53223c-0.25065,0.35482 -0.37597,0.84147 -0.37597,1.45996c0,1.16212 0.40852,1.74317 1.22558,1.74317c0.55664,0 1.08073,-0.29134 1.57227,-0.87403zm9.88281,1.66504c-0.64453,0.19532 -1.19629,0.29297 -1.65527,0.29297c-0.78126,0 -1.41846,-0.2596 -1.91162,-0.77881c-0.49317,-0.51921 -0.73975,-1.19221 -0.73975,-2.01904c0,-0.80404 0.21728,-1.46321 0.65185,-1.97754c0.43458,-0.51433 0.9904,-0.77148 1.66749,-0.77148c0.64128,0 1.13688,0.22786 1.48681,0.68359c0.34994,0.45573 0.5249,1.10351 0.5249,1.94336l-0.00488,0.29785l-3.34473,0c0.13998,1.25977 0.75684,1.88965 1.85059,1.88965c0.40039,0 0.89192,-0.10742 1.47461,-0.32227l0,0.76172zm-3.28125,-3.05176l2.33887,0c0,-0.98633 -0.36784,-1.47949 -1.10352,-1.47949c-0.73893,0 -1.15071,0.49316 -1.23535,1.47949zm4.96582,3.22266l0,-5.30273l0.96191,0l0,0.99609c0.50782,-0.74219 1.12956,-1.11328 1.86524,-1.11328c0.45899,0 0.82519,0.14567 1.09863,0.43701c0.27344,0.29134 0.41016,0.68278 0.41016,1.17432l0,3.80859l-0.96192,0l0,-3.49609c0,-0.39389 -0.05778,-0.67464 -0.17334,-0.84229c-0.11556,-0.16764 -0.3068,-0.25146 -0.57373,-0.25146c-0.58919,0 -1.1442,0.38573 -1.66504,1.15722l0,3.43262l-0.96191,0zm8.28125,0.12207c-0.75847,0 -1.36393,-0.25146 -1.81641,-0.75439c-0.45247,-0.50294 -0.67871,-1.17594 -0.67871,-2.01905c0,-0.85287 0.22705,-1.5275 0.68116,-2.02392c0.4541,-0.49642 1.07014,-0.74463 1.84814,-0.74463c0.778,0 1.39404,0.24821 1.84814,0.74463c0.45411,0.49642 0.68116,1.1678 0.68116,2.01416c0,0.86589 -0.22786,1.54622 -0.6836,2.04101c-0.45573,0.4948 -1.08235,0.74219 -1.87988,0.74219zm0.01465,-0.72266c1.01888,0 1.52832,-0.68684 1.52832,-2.06054c0,-1.35743 -0.50293,-2.03614 -1.50879,-2.03614c-1.00261,0 -1.50391,0.68196 -1.50391,2.0459c0,1.3672 0.49479,2.05078 1.48438,2.05078zm7.36816,0.60059l0,-0.99609c-0.51107,0.74544 -1.13118,1.11816 -1.86035,1.11816c-0.46224,0 -0.83008,-0.14567 -1.10351,-0.43701c-0.27344,-0.29134 -0.41016,-0.68441 -0.41016,-1.1792l0,-3.80859l0.96191,0l0,3.49609c0,0.39714 0.05778,0.67952 0.17334,0.84717c0.11556,0.16764 0.30843,0.25146 0.57862,0.25146c0.58594,0 1.13932,-0.38574 1.66015,-1.15722l0,-3.4375l0.96192,0l0,5.30273l-0.96192,0zm2.91016,1.7627l0.1123,-0.83497c0.55665,0.26368 1.10514,0.39551 1.64551,0.39551c1.08399,0 1.62598,-0.57454 1.62598,-1.72363l0,-0.83496c-0.35482,0.74219 -0.9375,1.11328 -1.74805,1.11328c-0.63477,0 -1.13932,-0.23112 -1.51367,-0.69336c-0.37435,-0.46224 -0.56152,-1.08561 -0.56152,-1.87012c0,-0.80729 0.21321,-1.46484 0.63964,-1.97265c0.42644,-0.50782 0.97819,-0.76172 1.65528,-0.76172c0.59245,0 1.10188,0.24088 1.52832,0.72265l0,-0.60546l0.9668,0l0,3.85742c0,0.83008 -0.04314,1.44449 -0.1294,1.84326c-0.08626,0.39876 -0.24821,0.7251 -0.48584,0.979c-0.41992,0.44597 -1.07259,0.66895 -1.95801,0.66895c-0.61849,0 -1.21093,-0.0944 -1.77734,-0.2832zm3.38379,-3.59864l0,-2.20215c-0.42318,-0.43945 -0.88379,-0.65918 -1.38184,-0.65918c-0.44271,0 -0.78938,0.17741 -1.04004,0.53223c-0.25065,0.35482 -0.37597,0.84147 -0.37597,1.45996c0,1.16212 0.40852,1.74317 1.22558,1.74317c0.55665,0 1.08073,-0.29134 1.57227,-0.87403zm2.83203,1.83594l0,-7.70996l0.96191,0l0,3.40332c0.50782,-0.74219 1.12956,-1.11328 1.86524,-1.11328c0.45898,0 0.82519,0.14567 1.09863,0.43701c0.27344,0.29134 0.41016,0.68278 0.41016,1.17432l0,3.80859l-0.96192,0l0,-3.49609c0,-0.39389 -0.05778,-0.67464 -0.17334,-0.84229c-0.11556,-0.16764 -0.3068,-0.25146 -0.57373,-0.25146c-0.58919,0 -1.1442,0.38573 -1.66504,1.15722l0,3.43262l-0.96191,0zm10.96191,0.12207c-0.48828,0 -0.86914,-0.13997 -1.14257,-0.41992c-0.27344,-0.27995 -0.41016,-0.66894 -0.41016,-1.16699l0,-3.11524l-0.66406,0l0,-0.72265l0.66406,0l0,-0.96192l0.96191,-0.09277l0,1.05469l1.38672,0l0,0.72265l-1.38672,0l0,2.93946c0,0.69336 0.29948,1.04003 0.89844,1.04003c0.12695,0 0.28157,-0.02115 0.46387,-0.06347l0,0.66406c-0.29623,0.08138 -0.55339,0.12207 -0.77149,0.12207zm2.14844,-0.12207l0,-5.30273l0.96192,0l0,5.30273l-0.96192,0zm0,-6.26465l0,-0.96191l0.96192,0l0,0.96191l-0.96192,0zm2.89063,6.26465l0,-5.30273l0.96191,0l0,0.99609c0.46875,-0.74219 1.07096,-1.11328 1.80664,-1.11328c0.70964,0 1.19303,0.37109 1.4502,1.11328c0.45573,-0.74545 1.04817,-1.11816 1.77734,-1.11816c0.46875,0 0.8317,0.13753 1.08887,0.41259c0.25716,0.27507 0.38574,0.65999 0.38574,1.15479l0,3.85742l-0.9668,0l0,-3.70605c0,-0.60548 -0.23925,-0.90821 -0.71777,-0.90821c-0.49805,0 -1.02051,0.35319 -1.56738,1.05957l0,3.55469l-0.9668,0l0,-3.70605c0,-0.60873 -0.24414,-0.91309 -0.73242,-0.91309c-0.48503,0 -1.00423,0.35481 -1.55762,1.06445l0,3.55469l-0.96191,0zm13.22265,-0.1709c-0.64453,0.19532 -1.19628,0.29297 -1.65527,0.29297c-0.78126,0 -1.41846,-0.2596 -1.91162,-0.77881c-0.49317,-0.51921 -0.73975,-1.19221 -0.73975,-2.01904c0,-0.80404 0.21728,-1.46321 0.65186,-1.97754c0.43457,-0.51433 0.99039,-0.77148 1.66748,-0.77148c0.64128,0 1.13688,0.22786 1.48681,0.68359c0.34994,0.45573 0.52491,1.10351 0.52491,1.94336l-0.00489,0.29785l-3.34472,0c0.13997,1.25977 0.75683,1.88965 1.85058,1.88965c0.4004,0 0.89193,-0.10742 1.47461,-0.32227l0,0.76172zm-3.28125,-3.05176l2.33887,0c0,-0.98633 -0.36783,-1.47949 -1.10352,-1.47949c-0.73893,0 -1.15071,0.49316 -1.23535,1.47949zm4.96582,3.22266l0,-7.70996l0.96192,0l0,7.70996l-0.96192,0zm2.89063,0l0,-5.30273l0.96191,0l0,5.30273l-0.96191,0zm0,-6.26465l0,-0.96191l0.96191,0l0,0.96191l-0.96191,0zm2.89062,6.26465l0,-5.30273l0.96192,0l0,0.99609c0.50781,-0.74219 1.12955,-1.11328 1.86523,-1.11328c0.45899,0 0.82519,0.14567 1.09863,0.43701c0.27344,0.29134 0.41016,0.68278 0.41016,1.17432l0,3.80859l-0.96191,0l0,-3.49609c0,-0.39389 -0.05778,-0.67464 -0.17334,-0.84229c-0.11556,-0.16764 -0.30681,-0.25146 -0.57373,-0.25146c-0.5892,0 -1.14421,0.38573 -1.66504,1.15722l0,3.43262l-0.96192,0zm10.09278,-0.1709c-0.64454,0.19532 -1.19629,0.29297 -1.65528,0.29297c-0.78125,0 -1.41845,-0.2596 -1.91162,-0.77881c-0.49316,-0.51921 -0.73974,-1.19221 -0.73974,-2.01904c0,-0.80404 0.21728,-1.46321 0.65185,-1.97754c0.43457,-0.51433 0.99039,-0.77148 1.66748,-0.77148c0.64128,0 1.13688,0.22786 1.48682,0.68359c0.34993,0.45573 0.5249,1.10351 0.5249,1.94336l-0.00488,0.29785l-3.34473,0c0.13998,1.25977 0.75683,1.88965 1.85059,1.88965c0.40039,0 0.89192,-0.10742 1.47461,-0.32227l0,0.76172zm-3.28125,-3.05176l2.33886,0c0,-0.98633 -0.36783,-1.47949 -1.10351,-1.47949c-0.73894,0 -1.15072,0.49316 -1.23535,1.47949zm9.72168,3.34473c-0.48829,0 -0.86914,-0.13997 -1.14258,-0.41992c-0.27344,-0.27995 -0.41016,-0.66894 -0.41016,-1.16699l0,-3.11524l-0.66406,0l0,-0.72265l0.66406,0l0,-0.96192l0.96192,-0.09277l0,1.05469l1.38671,0l0,0.72265l-1.38671,0l0,2.93946c0,0.69336 0.29947,1.04003 0.89843,1.04003c0.12696,0 0.28158,-0.02115 0.46387,-0.06347l0,0.66406c-0.29622,0.08138 -0.55338,0.12207 -0.77148,0.12207zm2.14843,-0.12207l0,-7.70996l0.96192,0l0,3.40332c0.50781,-0.74219 1.12955,-1.11328 1.86523,-1.11328c0.45899,0 0.8252,0.14567 1.09863,0.43701c0.27344,0.29134 0.41016,0.68278 0.41016,1.17432l0,3.80859l-0.96191,0l0,-3.49609c0,-0.39389 -0.05778,-0.67464 -0.17334,-0.84229c-0.11556,-0.16764 -0.30681,-0.25146 -0.57373,-0.25146c-0.5892,0 -1.14421,0.38573 -1.66504,1.15722l0,3.43262l-0.96192,0zm10.09278,-0.1709c-0.64454,0.19532 -1.19629,0.29297 -1.65528,0.29297c-0.78125,0 -1.41845,-0.2596 -1.91162,-0.77881c-0.49316,-0.51921 -0.73974,-1.19221 -0.73974,-2.01904c0,-0.80404 0.21728,-1.46321 0.65185,-1.97754c0.43457,-0.51433 0.9904,-0.77148 1.66748,-0.77148c0.64128,0 1.13688,0.22786 1.48682,0.68359c0.34993,0.45573 0.5249,1.10351 0.5249,1.94336l-0.00488,0.29785l-3.34473,0c0.13998,1.25977 0.75683,1.88965 1.85059,1.88965c0.40039,0 0.89192,-0.10742 1.47461,-0.32227l0,0.76172zm-3.28125,-3.05176l2.33886,0c0,-0.98633 -0.36783,-1.47949 -1.10351,-1.47949c-0.73894,0 -1.15072,0.49316 -1.23535,1.47949zm9.53613,3.34473c-0.43946,0 -0.9733,-0.10254 -1.60156,-0.30762l0,-0.88379c0.62826,0.31251 1.17513,0.46875 1.64062,0.46875c0.2767,0 0.50619,-0.07486 0.68848,-0.22461c0.18229,-0.14974 0.27344,-0.33691 0.27344,-0.56152c0,-0.32878 -0.25553,-0.60058 -0.76661,-0.81543l-0.56152,-0.23926c-0.83008,-0.34505 -1.24512,-0.84146 -1.24512,-1.48925c0,-0.46225 0.16358,-0.82601 0.49073,-1.09131c0.32715,-0.2653 0.77555,-0.39795 1.34521,-0.39795c0.29623,0 0.66243,0.04069 1.09863,0.12207l0.2002,0.03906l0,0.80078c-0.53711,-0.1595 -0.96354,-0.23926 -1.2793,-0.23926c-0.61849,0 -0.92773,0.22461 -0.92773,0.67383c0,0.28972 0.23437,0.53386 0.70312,0.73242l0.46387,0.19532c0.52409,0.22135 0.89518,0.45491 1.11328,0.70068c0.2181,0.24577 0.32715,0.55257 0.32715,0.92041c0,0.4655 -0.18392,0.84798 -0.55176,1.14746c-0.36784,0.29948 -0.83821,0.44922 -1.41113,0.44922zm7.00684,-0.12207l0,-0.99609c-0.51108,0.74544 -1.13119,1.11816 -1.86036,1.11816c-0.46224,0 -0.83007,-0.14567 -1.10351,-0.43701c-0.27344,-0.29134 -0.41016,-0.68441 -0.41016,-1.1792l0,-3.80859l0.96192,0l0,3.49609c0,0.39714 0.05778,0.67952 0.17334,0.84717c0.11556,0.16764 0.30843,0.25146 0.57861,0.25146c0.58594,0 1.13932,-0.38574 1.66016,-1.15722l0,-3.4375l0.96191,0l0,5.30273l-0.96191,0zm2.89062,0l0,-5.30273l0.96191,0l0,0.99609c0.38087,-0.74219 0.93425,-1.11328 1.66016,-1.11328c0.09766,0 0.2002,0.00814 0.30762,0.02441l0,0.89844c-0.16602,-0.05534 -0.3125,-0.08301 -0.43946,-0.08301c-0.60872,0 -1.11816,0.36133 -1.52832,1.08399l0,3.49609l-0.96191,0zm5.19043,0l-1.97266,-5.30273l0.96192,0l1.54297,4.12597l1.62597,-4.12597l0.89844,0l-2.09473,5.30273l-0.96191,0zm4.07715,0l0,-5.30273l0.96191,0l0,5.30273l-0.96191,0zm0,-6.26465l0,-0.96191l0.96191,0l0,0.96191l-0.96191,0zm3.98926,6.26465l-1.97266,-5.30273l0.96191,0l1.54297,4.12597l1.62598,-4.12597l0.89844,0l-2.09473,5.30273l-0.96191,0zm6.81152,-0.67383c-0.57617,0.5306 -1.13118,0.7959 -1.66504,0.7959c-0.43945,0 -0.80403,-0.13753 -1.09375,-0.4126c-0.28971,-0.27506 -0.43457,-0.62255 -0.43457,-1.04248c0,-0.57943 0.24332,-1.02457 0.72998,-1.33545c0.48666,-0.31087 1.18408,-0.46631 2.09229,-0.46631l0.22949,0l0,-0.63964c0,-0.61524 -0.31575,-0.92286 -0.94727,-0.92286c-0.50781,0 -1.05631,0.15625 -1.64551,0.46875l0,-0.79589c0.64779,-0.26368 1.25489,-0.39551 1.82129,-0.39551c0.59246,0 1.02946,0.13346 1.31104,0.40039c0.28158,0.26693 0.42236,0.68196 0.42236,1.24512l0,2.40234c0,0.55013 0.16927,0.8252 0.50781,0.8252c0.04232,0 0.10417,-0.00652 0.18555,-0.01954l0.06836,0.53223c-0.2181,0.10417 -0.45898,0.15625 -0.72266,0.15625c-0.44922,0 -0.73567,-0.2653 -0.85937,-0.7959zm-0.1416,-0.52246l0,-1.37207l-0.32227,-0.00976c-0.52734,0 -0.95377,0.10009 -1.27929,0.30029c-0.32553,0.20019 -0.48829,0.46305 -0.48829,0.78857c0,0.23112 0.08138,0.42643 0.24415,0.58594c0.16276,0.15951 0.36132,0.23926 0.5957,0.23926c0.40039,0 0.81705,-0.17741 1.25,-0.53223zm2.92969,1.19629l0,-7.70996l0.96191,0l0,7.70996l-0.96191,0zm-185.29786,12l0,-5.30273l0.96192,0l0,0.99609c0.38086,-0.74219 0.93424,-1.11328 1.66015,-1.11328c0.09766,0 0.2002,0.00814 0.30762,0.02441l0,0.89844c-0.16602,-0.05534 -0.3125,-0.08301 -0.43945,-0.08301c-0.60873,0 -1.11816,0.36133 -1.52832,1.08399l0,3.49609l-0.96192,0zm6.82618,-0.67383c-0.57618,0.5306 -1.13119,0.7959 -1.66504,0.7959c-0.43946,0 -0.80404,-0.13753 -1.09375,-0.4126c-0.28972,-0.27506 -0.43457,-0.62255 -0.43457,-1.04248c0,-0.57943 0.24332,-1.02457 0.72998,-1.33545c0.48665,-0.31087 1.18407,-0.46631 2.09228,-0.46631l0.22949,0l0,-0.63964c0,-0.61524 -0.31575,-0.92286 -0.94726,-0.92286c-0.50782,0 -1.05631,0.15625 -1.64551,0.46875l0,-0.79589c0.64779,-0.26368 1.25488,-0.39551 1.82129,-0.39551c0.59245,0 1.02946,0.13346 1.31104,0.40039c0.28157,0.26693 0.42236,0.68196 0.42236,1.24512l0,2.40234c0,0.55013 0.16927,0.8252 0.50781,0.8252c0.04232,0 0.10417,-0.00652 0.18555,-0.01954l0.06836,0.53223c-0.2181,0.10417 -0.45899,0.15625 -0.72266,0.15625c-0.44922,0 -0.73568,-0.2653 -0.85937,-0.7959zm-0.14161,-0.52246l0,-1.37207l-0.32226,-0.00976c-0.52735,0 -0.95378,0.10009 -1.2793,0.30029c-0.32552,0.20019 -0.48828,0.46305 -0.48828,0.78857c0,0.23112 0.08138,0.42643 0.24414,0.58594c0.16276,0.15951 0.36133,0.23926 0.5957,0.23926c0.4004,0 0.81706,-0.17741 1.25,-0.53223zm4.52149,1.31836c-0.48828,0 -0.86914,-0.13997 -1.14258,-0.41992c-0.27344,-0.27995 -0.41016,-0.66894 -0.41016,-1.16699l0,-3.11524l-0.66406,0l0,-0.72265l0.66406,0l0,-0.96192l0.96192,-0.09277l0,1.05469l1.38672,0l0,0.72265l-1.38672,0l0,2.93946c0,0.69336 0.29947,1.04003 0.89844,1.04003c0.12695,0 0.28157,-0.02115 0.46386,-0.06347l0,0.66406c-0.29622,0.08138 -0.55338,0.12207 -0.77148,0.12207zm6.03516,-0.29297c-0.64454,0.19532 -1.19629,0.29297 -1.65528,0.29297c-0.78125,0 -1.41845,-0.2596 -1.91162,-0.77881c-0.49317,-0.51921 -0.73975,-1.19221 -0.73975,-2.01904c0,-0.80404 0.21729,-1.46321 0.65186,-1.97754c0.43457,-0.51433 0.99039,-0.77148 1.66748,-0.77148c0.64128,0 1.13688,0.22786 1.48682,0.68359c0.34993,0.45573 0.5249,1.10351 0.5249,1.94336l-0.00488,0.29785l-3.34473,0c0.13997,1.25977 0.75683,1.88965 1.85059,1.88965c0.40039,0 0.89192,-0.10742 1.47461,-0.32227l0,0.76172zm-3.28125,-3.05176l2.33886,0c0,-0.98633 -0.36783,-1.47949 -1.10351,-1.47949c-0.73894,0 -1.15072,0.49316 -1.23535,1.47949zm9.27734,-1.35742l0,4.58008l-0.9668,0l0,-4.58008l-0.75195,0l0,-0.72265l0.75195,0l0,-0.63477c0,-1.26303 0.57617,-1.89453 1.72852,-1.89453c0.32227,0 0.68847,0.05371 1.09863,0.16113l0,0.76172c-0.43295,-0.13346 -0.77962,-0.20019 -1.04004,-0.20019c-0.31576,0 -0.53141,0.07568 -0.64697,0.22705c-0.11556,0.15136 -0.17334,0.43212 -0.17334,0.84228l0,0.73731l1.32324,0l0,0.72265l-1.32324,0zm4.60449,4.70215c-0.75847,0 -1.36393,-0.25146 -1.81641,-0.75439c-0.45247,-0.50294 -0.67871,-1.17594 -0.67871,-2.01905c0,-0.85287 0.22705,-1.5275 0.68116,-2.02392c0.4541,-0.49642 1.07014,-0.74463 1.84814,-0.74463c0.778,0 1.39404,0.24821 1.84815,0.74463c0.4541,0.49642 0.68115,1.1678 0.68115,2.01416c0,0.86589 -0.22786,1.54622 -0.6836,2.04101c-0.45573,0.4948 -1.08235,0.74219 -1.87988,0.74219zm0.01465,-0.72266c1.01888,0 1.52832,-0.68684 1.52832,-2.06054c0,-1.35743 -0.50293,-2.03614 -1.50879,-2.03614c-1.00261,0 -1.50391,0.68196 -1.50391,2.0459c0,1.3672 0.49479,2.05078 1.48438,2.05078zm4.05273,0.60059l0,-5.30273l0.96192,0l0,0.99609c0.38086,-0.74219 0.93424,-1.11328 1.66015,-1.11328c0.09766,0 0.2002,0.00814 0.30762,0.02441l0,0.89844c-0.16602,-0.05534 -0.3125,-0.08301 -0.43945,-0.08301c-0.60873,0 -1.11816,0.36133 -1.52832,1.08399l0,3.49609l-0.96192,0zm11.14258,-0.1709c-0.64453,0.19532 -1.19628,0.29297 -1.65527,0.29297c-0.78125,0 -1.41846,-0.2596 -1.91162,-0.77881c-0.49317,-0.51921 -0.73975,-1.19221 -0.73975,-2.01904c0,-0.80404 0.21728,-1.46321 0.65186,-1.97754c0.43457,-0.51433 0.99039,-0.77148 1.66748,-0.77148c0.64128,0 1.13688,0.22786 1.48681,0.68359c0.34994,0.45573 0.52491,1.10351 0.52491,1.94336l-0.00489,0.29785l-3.34472,0c0.13997,1.25977 0.75683,1.88965 1.85058,1.88965c0.4004,0 0.89193,-0.10742 1.47461,-0.32227l0,0.76172zm-3.28125,-3.05176l2.33887,0c0,-0.98633 -0.36784,-1.47949 -1.10352,-1.47949c-0.73893,0 -1.15071,0.49316 -1.23535,1.47949zm6.06446,3.22266l-1.97266,-5.30273l0.96191,0l1.54297,4.12597l1.62598,-4.12597l0.89844,0l-2.09473,5.30273l-0.96191,0zm7.96386,-0.1709c-0.64453,0.19532 -1.19628,0.29297 -1.65527,0.29297c-0.78126,0 -1.41846,-0.2596 -1.91162,-0.77881c-0.49317,-0.51921 -0.73975,-1.19221 -0.73975,-2.01904c0,-0.80404 0.21728,-1.46321 0.65186,-1.97754c0.43457,-0.51433 0.99039,-0.77148 1.66748,-0.77148c0.64128,0 1.13688,0.22786 1.48681,0.68359c0.34994,0.45573 0.52491,1.10351 0.52491,1.94336l-0.00489,0.29785l-3.34472,0c0.13997,1.25977 0.75683,1.88965 1.85058,1.88965c0.4004,0 0.89193,-0.10742 1.47461,-0.32227l0,0.76172zm-3.28125,-3.05176l2.33887,0c0,-0.98633 -0.36783,-1.47949 -1.10352,-1.47949c-0.73893,0 -1.15071,0.49316 -1.23535,1.47949zm4.96582,3.22266l0,-5.30273l0.96192,0l0,0.99609c0.38086,-0.74219 0.93424,-1.11328 1.66015,-1.11328c0.09766,0 0.2002,0.00814 0.30762,0.02441l0,0.89844c-0.16602,-0.05534 -0.3125,-0.08301 -0.43945,-0.08301c-0.60873,0 -1.11816,0.36133 -1.52832,1.08399l0,3.49609l-0.96192,0zm4.39942,1.92871l0.85937,-1.92871l-2.05078,-5.30273l1.04004,0l1.51855,3.99414l1.6211,-3.99414l0.9082,0l-2.89551,7.23144l-1.00097,0zm6.99218,-1.80664c-0.75846,0 -1.36393,-0.25146 -1.8164,-0.75439c-0.45248,-0.50294 -0.67871,-1.17594 -0.67871,-2.01905c0,-0.85287 0.22705,-1.5275 0.68115,-2.02392c0.4541,-0.49642 1.07015,-0.74463 1.84814,-0.74463c0.778,0 1.39404,0.24821 1.84815,0.74463c0.4541,0.49642 0.68115,1.1678 0.68115,2.01416c0,0.86589 -0.22786,1.54622 -0.68359,2.04101c-0.45574,0.4948 -1.08236,0.74219 -1.87989,0.74219zm0.01465,-0.72266c1.01889,0 1.52832,-0.68684 1.52832,-2.06054c0,-1.35743 -0.50292,-2.03614 -1.50879,-2.03614c-1.0026,0 -1.5039,0.68196 -1.5039,2.0459c0,1.3672 0.49478,2.05078 1.48437,2.05078zm4.05274,0.60059l0,-5.30273l0.96191,0l0,0.99609c0.50782,-0.74219 1.12956,-1.11328 1.86524,-1.11328c0.45898,0 0.82519,0.14567 1.09863,0.43701c0.27344,0.29134 0.41015,0.68278 0.41015,1.17432l0,3.80859l-0.96191,0l0,-3.49609c0,-0.39389 -0.05778,-0.67464 -0.17334,-0.84229c-0.11556,-0.16764 -0.3068,-0.25146 -0.57373,-0.25146c-0.5892,0 -1.1442,0.38573 -1.66504,1.15722l0,3.43262l-0.96191,0zm10.09277,-0.1709c-0.64453,0.19532 -1.19629,0.29297 -1.65527,0.29297c-0.78126,0 -1.41846,-0.2596 -1.91162,-0.77881c-0.49317,-0.51921 -0.73975,-1.19221 -0.73975,-2.01904c0,-0.80404 0.21728,-1.46321 0.65186,-1.97754c0.43457,-0.51433 0.99039,-0.77148 1.66748,-0.77148c0.64128,0 1.13687,0.22786 1.48681,0.68359c0.34994,0.45573 0.5249,1.10351 0.5249,1.94336l-0.00488,0.29785l-3.34472,0c0.13997,1.25977 0.75682,1.88965 1.85058,1.88965c0.40039,0 0.89192,-0.10742 1.47461,-0.32227l0,0.76172zm-3.28125,-3.05176l2.33887,0c0,-0.98633 -0.36784,-1.47949 -1.10352,-1.47949c-0.73893,0 -1.15071,0.49316 -1.23535,1.47949zm11.5332,3.22266l0,-0.99609c-0.39062,0.74544 -0.97981,1.11816 -1.76757,1.11816c-0.63803,0 -1.14014,-0.23274 -1.50635,-0.69824c-0.36622,-0.4655 -0.54932,-1.10189 -0.54932,-1.90918c0,-0.88217 0.20752,-1.5918 0.62256,-2.12891c0.41504,-0.53711 0.9611,-0.80566 1.63818,-0.80566c0.62826,0 1.14909,0.24088 1.5625,0.72265l0,-3.01269l0.9668,0l0,7.70996l-0.9668,0zm0,-4.03809c-0.49805,-0.43945 -0.97005,-0.65918 -1.41601,-0.65918c-0.92123,0 -1.38184,0.70475 -1.38184,2.11426c0,1.24024 0.41015,1.86035 1.23047,1.86035c0.53386,0 1.05631,-0.29133 1.56738,-0.87402l0,-2.44141zm2.89063,4.03809l0,-5.30273l0.96191,0l0,0.99609c0.38086,-0.74219 0.93424,-1.11328 1.66016,-1.11328c0.09766,0 0.20019,0.00814 0.30762,0.02441l0,0.89844c-0.16602,-0.05534 -0.3125,-0.08301 -0.43946,-0.08301c-0.60872,0 -1.11816,0.36133 -1.52832,1.08399l0,3.49609l-0.96191,0zm6.16699,0.12207c-0.75847,0 -1.36393,-0.25146 -1.81641,-0.75439c-0.45247,-0.50294 -0.67871,-1.17594 -0.67871,-2.01905c0,-0.85287 0.22705,-1.5275 0.68116,-2.02392c0.4541,-0.49642 1.07014,-0.74463 1.84814,-0.74463c0.778,0 1.39404,0.24821 1.84814,0.74463c0.45411,0.49642 0.68116,1.1678 0.68116,2.01416c0,0.86589 -0.22787,1.54622 -0.6836,2.04101c-0.45573,0.4948 -1.08235,0.74219 -1.87988,0.74219zm0.01465,-0.72266c1.01888,0 1.52832,-0.68684 1.52832,-2.06054c0,-1.35743 -0.50293,-2.03614 -1.50879,-2.03614c-1.00261,0 -1.50391,0.68196 -1.50391,2.0459c0,1.3672 0.49479,2.05078 1.48438,2.05078zm4.05273,2.5293l0,-7.23144l0.96192,0l0,0.99609c0.39388,-0.74219 0.98469,-1.11328 1.77246,-1.11328c0.63802,0 1.14013,0.23274 1.50635,0.69824c0.36621,0.4655 0.54931,1.10188 0.54931,1.90918c0,0.87891 -0.20751,1.58773 -0.62256,2.12646c-0.41504,0.53874 -0.96109,0.80811 -1.63818,0.80811c-0.62826,0 -1.15071,-0.24088 -1.56738,-0.72266l0,2.5293l-0.96192,0zm0.96192,-3.19336c0.49479,0.44271 0.96679,0.66406 1.41601,0.66406c0.92449,0 1.38672,-0.70474 1.38672,-2.11425c0,-1.2435 -0.41015,-1.86524 -1.23047,-1.86524c-0.53711,0 -1.06119,0.29134 -1.57226,0.87403l0,2.4414zm6.73828,1.38672c-0.43946,0 -0.97331,-0.10254 -1.60156,-0.30762l0,-0.88379c0.62825,0.31251 1.17512,0.46875 1.64062,0.46875c0.27669,0 0.50618,-0.07486 0.68848,-0.22461c0.18229,-0.14974 0.27344,-0.33691 0.27344,-0.56152c0,-0.32878 -0.25554,-0.60058 -0.76661,-0.81543l-0.56152,-0.23926c-0.83008,-0.34505 -1.24512,-0.84146 -1.24512,-1.48925c0,-0.46225 0.16358,-0.82601 0.49073,-1.09131c0.32715,-0.2653 0.77555,-0.39795 1.34521,-0.39795c0.29623,0 0.66243,0.04069 1.09863,0.12207l0.2002,0.03906l0,0.80078c-0.53711,-0.1595 -0.96354,-0.23926 -1.2793,-0.23926c-0.61849,0 -0.92773,0.22461 -0.92773,0.67383c0,0.28972 0.23437,0.53386 0.70312,0.73242l0.46387,0.19532c0.52409,0.22135 0.89518,0.45491 1.11328,0.70068c0.2181,0.24577 0.32715,0.55257 0.32715,0.92041c0,0.4655 -0.18392,0.84798 -0.55176,1.14746c-0.36784,0.29948 -0.83821,0.44922 -1.41113,0.44922zm8.44726,0c-0.48828,0 -0.86913,-0.13997 -1.14257,-0.41992c-0.27344,-0.27995 -0.41016,-0.66894 -0.41016,-1.16699l0,-3.11524l-0.66406,0l0,-0.72265l0.66406,0l0,-0.96192l0.96191,-0.09277l0,1.05469l1.38672,0l0,0.72265l-1.38672,0l0,2.93946c0,0.69336 0.29948,1.04003 0.89844,1.04003c0.12695,0 0.28158,-0.02115 0.46387,-0.06347l0,0.66406c-0.29623,0.08138 -0.55339,0.12207 -0.77149,0.12207zm4.22364,0c-0.75847,0 -1.36393,-0.25146 -1.81641,-0.75439c-0.45248,-0.50294 -0.67871,-1.17594 -0.67871,-2.01905c0,-0.85287 0.22705,-1.5275 0.68115,-2.02392c0.45411,-0.49642 1.07015,-0.74463 1.84815,-0.74463c0.778,0 1.39404,0.24821 1.84814,0.74463c0.45411,0.49642 0.68115,1.1678 0.68115,2.01416c0,0.86589 -0.22786,1.54622 -0.68359,2.04101c-0.45573,0.4948 -1.08235,0.74219 -1.87988,0.74219zm0.01465,-0.72266c1.01888,0 1.52832,-0.68684 1.52832,-2.06054c0,-1.35743 -0.50293,-2.03614 -1.50879,-2.03614c-1.00261,0 -1.50391,0.68196 -1.50391,2.0459c0,1.3672 0.49479,2.05078 1.48438,2.05078zm6.85546,0.60059l0,-0.72266l3.28125,-3.85742l-3.12988,0l0,-0.72265l4.31641,0l0,0.72265l-3.28125,3.85742l3.34472,0l0,0.72266l-4.53125,0zm9.98047,-0.1709c-0.64453,0.19532 -1.19628,0.29297 -1.65527,0.29297c-0.78125,0 -1.41846,-0.2596 -1.91162,-0.77881c-0.49317,-0.51921 -0.73975,-1.19221 -0.73975,-2.01904c0,-0.80404 0.21729,-1.46321 0.65186,-1.97754c0.43457,-0.51433 0.99039,-0.77148 1.66748,-0.77148c0.64128,0 1.13688,0.22786 1.48681,0.68359c0.34994,0.45573 0.52491,1.10351 0.52491,1.94336l-0.00489,0.29785l-3.34472,0c0.13997,1.25977 0.75683,1.88965 1.85058,1.88965c0.4004,0 0.89193,-0.10742 1.47461,-0.32227l0,0.76172zm-3.28125,-3.05176l2.33887,0c0,-0.98633 -0.36784,-1.47949 -1.10352,-1.47949c-0.73893,0 -1.15071,0.49316 -1.23535,1.47949zm4.96582,3.22266l0,-5.30273l0.96192,0l0,0.99609c0.38086,-0.74219 0.93424,-1.11328 1.66015,-1.11328c0.09766,0 0.2002,0.00814 0.30762,0.02441l0,0.89844c-0.16602,-0.05534 -0.3125,-0.08301 -0.43945,-0.08301c-0.60873,0 -1.11816,0.36133 -1.52832,1.08399l0,3.49609l-0.96192,0zm6.167,0.12207c-0.75847,0 -1.36393,-0.25146 -1.81641,-0.75439c-0.45248,-0.50294 -0.67871,-1.17594 -0.67871,-2.01905c0,-0.85287 0.22705,-1.5275 0.68115,-2.02392c0.4541,-0.49642 1.07015,-0.74463 1.84815,-0.74463c0.77799,0 1.39404,0.24821 1.84814,0.74463c0.4541,0.49642 0.68115,1.1678 0.68115,2.01416c0,0.86589 -0.22786,1.54622 -0.68359,2.04101c-0.45573,0.4948 -1.08235,0.74219 -1.87988,0.74219zm0.01464,-0.72266c1.01889,0 1.52832,-0.68684 1.52832,-2.06054c0,-1.35743 -0.50292,-2.03614 -1.50878,-2.03614c-1.00261,0 -1.50391,0.68196 -1.50391,2.0459c0,1.3672 0.49479,2.05078 1.48437,2.05078zm4.06739,0.60059l0,-1.20605l1.20605,0l0,1.20605l-1.20605,0z"/>
    <path stroke-width="1.5" stroke="#D6D6D6" id="divider" d="m190.75,8l0,24.70001"/>
    <g id="logo">
     <path fill="#000000" id="ZeroHedge" d="m38.85,28l15.9,0l0.9,-4.75l-0.5,0c-0.75,2.525 -1.75,3.7 -4.45,3.7l-8,0l11.9,-15.85l0,-0.35l-14.625,0l-0.35,4.525l0.5,0c0.35,-3.175 2.225,-3.475 5.025,-3.475l5.575,0l-11.95,15.85l0.075,0.35zm20.88947,-7.975c0.025,-1.575 1.35,-3.275 3,-3.275c2.05,0 2.7,1.45 2.7,3.275l-5.7,0zm8.1,0.75c-0.025,-2.7 -1.8,-4.775 -4.525,-4.775c-3.65,0 -5.525,3.25 -5.525,6.575c0,3.25 1.975,5.675 5.35,5.675c2.5,0 4.35,-2.175 5.325,-4.25l-0.425,-0.275c-0.85,1.3 -2.15,2.625 -4.325,2.625c-2.725,0 -4.025,-2.45 -4.025,-5.25l0,-0.325l8.15,0zm2.81448,7.225l6.3,0l0,-0.5c-1.85,0 -2.125,-0.275 -2.125,-2.25l0,-5.825c0,-0.125 0.975,-1.725 1.875,-1.725c0.3,0 0.475,0.175 0.675,0.35c0.2,0.175 0.45,0.35 0.85,0.35c0.625,0 1.2,-0.475 1.2,-1.125c0,-0.825 -0.725,-1.275 -1.475,-1.275c-1.225,0 -2.4,1.425 -3.125,2.225l0,-2.225l-0.125,0c-1.275,0.45 -2.675,0.85 -4.05,1.2l0,0.5c1.75,0 1.975,0.225 1.975,2.025l0,5.475c0,1.85 -0.075,2.2 -1.975,2.3l0,0.5zm12.96447,-6.7c0,-2.225 0.85,-4.55 3.4,-4.55c3.025,0 3.8,3.725 3.8,6.4c0,1.85 -0.925,4.35 -3.15,4.35c-3.05,0 -4.05,-3.775 -4.05,-6.2zm9.6,0.875c0,-3.775 -2.2,-6.175 -6.025,-6.175c-3.4,0 -5.975,2.8 -5.975,6.175c0,3.45 2.475,6.075 5.975,6.075c3.4,0 6.025,-2.675 6.025,-6.075zm2.28948,5.825l8.09999,0l0,-0.5c-2,0 -2.7,-0.4 -2.7,-2.45l0,-5.625l8.925,0l0,5.625c0,2.05 -0.69999,2.45 -2.69999,2.45l0,0.5l8.09999,0l0,-0.5c-2,0 -2.7,-0.4 -2.7,-2.45l0,-11.35c0,-2.05 0.7,-2.45 2.7,-2.45l0,-0.5l-8.09999,0l0,0.5c2,0 2.69999,0.4 2.69999,2.45l0,4.675l-8.925,0l0,-4.675c0,-2.05 0.7,-2.45 2.7,-2.45l0,-0.5l-8.09999,0l0,0.5c2,0 2.7,0.4 2.7,2.45l0,11.35c0,2.05 -0.7,2.45 -2.7,2.45l0,0.5zm23.96447,-7.975c0.025,-1.575 1.35,-3.275 3,-3.275c2.05,0 2.7,1.45 2.7,3.275l-5.7,0zm8.1,0.75c-0.025,-2.7 -1.8,-4.775 -4.525,-4.775c-3.65,0 -5.525,3.25 -5.525,6.575c0,3.25 1.975,5.675 5.35,5.675c2.5,0 4.35,-2.175 5.325,-4.25l-0.425,-0.275c-0.85,1.3 -2.15,2.625 -4.325,2.625c-2.725,0 -4.025,-2.45 -4.025,-5.25l0,-0.325l8.15,0zm5.43947,0.925c0,-2.175 0.875,-4.95 3.4,-4.95c1.3,0 2.3,0.6 2.875,1.85c0.125,0.25 0.125,0.975 0.125,1.575l0,5.65c0,0.375 -1.15,0.875 -2.525,0.875c-2.7,0 -3.875,-2.675 -3.875,-5zm6.4,-4.525c-0.95,-0.8 -1.75,-1.175 -3,-1.175c-3.175,0 -5.6,3.05 -5.6,6.475c0,5.25 3.8,5.775 5.025,5.775c1.35,0 2.55,-0.375 3.625,-1.725l0.05,0l0,1.725c1.175,-0.425 2.4,-0.775 3.625,-1.05l0,-0.5c-1.425,0 -1.525,-0.35 -1.525,-1.8l0,-14.775c-1.175,0.25 -2.575,0.8 -3.9,1.075l0,0.5l0.275,0c0.7,0 1.425,0.15 1.425,0.975l0,4.5zm7.31448,13.325c0,-0.85 0.9,-1.975 1.25,-2.1c6.825,0 7.425,0.35 7.4,1.6c0,1.8 -2.675,2.6 -4.025,2.6c-1.4,0 -4.625,-0.075 -4.625,-2.1zm3.55,-13.75c1.875,0 2.45,2.85 2.45,4.275c0,1.175 -0.45,2.7 -1.9,2.7c-1.925,0 -2.475,-2.85 -2.475,-4.325c0,-2.5 1.45,-2.65 1.925,-2.65zm6.075,0.175l-3,0c-0.175,-0.05 -0.65,-0.925 -2.85,-0.925c-2.25,0 -4.35,2 -4.35,4.275c0,1.75 0.6,2.85 2.075,3.8c-0.65,0.55 -1.9,1.75 -1.9,2.675c0,0.625 0.375,1.2 0.925,1.45c-0.725,0.7 -1.975,2.05 -1.975,3.125c0,1.975 2.475,2.525 4.025,2.525c2.825,0 7.2,-1.375 7.2,-4.725c0,-2.625 -3.475,-2.35 -5.3,-2.425c-2.55,-0.1 -3.125,-0.3 -3.125,-1.25c0,-0.675 0.55,-1.05 0.85,-1.05c0.1,0 0.4,0.075 1.45,0.075c2.625,0 4.55,-1.725 4.55,-4.35c0,-0.775 -0.275,-1.525 -0.6,-2.275l2.025,0l0,-0.925zm4.38947,3.1c0.025,-1.575 1.35,-3.275 3,-3.275c2.05,0 2.7,1.45 2.7,3.275l-5.7,0zm8.1,0.75c-0.025,-2.7 -1.8,-4.775 -4.525,-4.775c-3.65,0 -5.525,3.25 -5.525,6.575c0,3.25 1.975,5.675 5.35,5.675c2.5,0 4.35,-2.175 5.325,-4.25l-0.425,-0.275c-0.85,1.3 -2.15,2.625 -4.325,2.625c-2.725,0 -4.025,-2.45 -4.025,-5.25l0,-0.325l8.15,0z"/>
     <g id="mark">
      <path fill="#000000" id="Fill-1" d="m21.7782,30.09018c-0.00575,-1.18384 -0.13181,-8.41846 -2.56658,-8.54249c-0.25787,-0.01223 -3.85132,-0.0134 -4.37108,-0.0134c-0.34018,0 -3.32982,0 -3.54913,0.00641c-2.41865,0.08327 -2.24022,7.96717 -2.24022,7.96717c0,0 -0.23311,-0.0134 -0.42651,0c-0.04087,-0.191 -1.17364,-4.64276 -1.51497,-8.64032c-0.26996,-3.16719 0.15771,-6.64532 0.54394,-9.28144c0.0564,0.00116 0.29931,0.00873 0.36435,0.01106c0.18189,2.95581 1.26458,7.14961 2.27418,7.29285c0.49789,0.06813 0.96585,0.11355 1.39524,0.13161c0.22449,0.01048 2.61149,0.01048 3.09844,0.01048c0.31888,0 4.35957,-0.00117 4.64909,-0.02038c1.82234,-0.1153 2.28166,-7.09021 2.28166,-7.09021c0,0 0.19053,0.00116 0.38335,-0.00117c0.34133,1.58098 1.08327,5.10221 1.15868,8.68225c0.08116,3.91603 -0.70453,7.8408 -1.08155,9.48758l-0.39889,0z"/>
      <g id="Group-5">
       <mask transform="translate(0,0.5487689971923828) " id="mask-2">
        <use id="svg_1" xlink:href="#path-1"/>
       </mask>
       <g id="Clip-4"/>
       <path mask="url(#mask-2)" fill="#000000" id="Fill-3" d="m20.31786,34.96475c-1.48446,1.57399 -4.45051,2.66466 -7.16963,1.475c-3.4035,-1.48722 -5.19245,-5.57621 -6.15312,-9.7799c-0.14505,-0.63472 -0.27111,-1.27002 -0.38162,-1.90125c-0.66424,-3.80481 -0.76555,-8.07605 -0.16117,-11.85234c0.53127,-3.32557 1.61052,-6.26682 3.3327,-8.17155c0.81965,-0.9055 2.05661,-1.84127 3.80642,-2.05381c3.5946,-0.43673 5.79107,1.54894 7.16963,3.72212c1.05564,1.66308 1.90177,3.94749 2.48888,6.52479c0.9716,4.26484 1.22486,9.3356 0.52264,13.73204c-0.54164,3.39719 -1.65599,6.39551 -3.45473,8.3049m6.34307,-29.13821c-2.39448,-3.2755 -6.56986,-5.60008 -11.92636,-5.19945c-2.60227,0.19507 -4.67959,1.08252 -6.40753,2.24597c-4.96682,3.3413 -8.06583,9.49748 -8.31104,17.39302c-0.18074,5.80272 1.18976,10.24167 3.67921,13.47932c2.4578,3.1963 6.51575,5.57212 11.92924,5.19653c4.57081,-0.31503 8.19534,-3.17417 10.52938,-6.54516c2.38124,-3.43796 3.8657,-7.52811 4.12357,-13.02919c0.25787,-5.49585 -1.19666,-10.23236 -3.61647,-13.54104"/>
      </g>
     </g>
    </g>
   </g>
  </g>
 </g>
</svg>